<svg width="27" height="23" viewBox="0 0 27 23" fill="none" xmlns="http://www.w3.org/2000/svg">
<path d="M15.9545 8.27003V6.64416C16.6295 6.32802 17.3199 6.09091 18.0256 5.93284C18.7313 5.77477 19.4727 5.69573 20.25 5.69573C20.7818 5.69573 21.3034 5.74089 21.8148 5.83122C22.3261 5.92155 22.8273 6.03445 23.3182 6.16994V7.66033C22.8273 7.4571 22.3313 7.30467 21.8301 7.20305C21.329 7.10144 20.8023 7.05063 20.25 7.05063C19.4727 7.05063 18.7261 7.15789 18.0102 7.37242C17.2943 7.58694 16.6091 7.88615 15.9545 8.27003ZM15.9545 15.722V14.0622C16.6295 13.7574 17.3199 13.5287 18.0256 13.3763C18.7313 13.2239 19.4727 13.1477 20.25 13.1477C20.7818 13.1477 21.3034 13.1928 21.8148 13.2832C22.3261 13.3735 22.8273 13.4864 23.3182 13.6219V15.1123C22.8273 14.909 22.3313 14.7566 21.8301 14.655C21.329 14.5534 20.8023 14.5026 20.25 14.5026C19.4727 14.5026 18.7261 14.6042 18.0102 14.8074C17.2943 15.0106 16.6091 15.3155 15.9545 15.722ZM15.9545 11.996V10.3701C16.6295 10.054 17.3199 9.81687 18.0256 9.6588C18.7313 9.50073 19.4727 9.4217 20.25 9.4217C20.7818 9.4217 21.3034 9.46686 21.8148 9.55719C22.3261 9.64751 22.8273 9.76042 23.3182 9.89591V11.3863C22.8273 11.1831 22.3313 11.0306 21.8301 10.929C21.329 10.8274 20.8023 10.7766 20.25 10.7766C19.4727 10.7766 18.7261 10.8839 18.0102 11.0984C17.2943 11.3129 16.6091 11.6121 15.9545 11.996ZM6.38182 17.5511C7.47749 17.5511 8.54402 17.6922 9.58141 17.9745C10.6188 18.2568 11.6386 18.6802 12.6409 19.2447V4.78118C11.7205 4.10373 10.7221 3.5787 9.64578 3.20611C8.5695 2.83351 7.48152 2.64721 6.38182 2.64721C5.60455 2.64721 4.84261 2.75448 4.09602 2.969C3.34943 3.18353 2.59773 3.44886 1.84091 3.765V18.4656C2.475 18.1495 3.19602 17.918 4.00398 17.7712C4.81193 17.6245 5.60455 17.5511 6.38182 17.5511ZM14.4818 19.2447C15.5045 18.6802 16.5068 18.2568 17.4886 17.9745C18.4705 17.6922 19.5136 17.5511 20.6182 17.5511C21.3955 17.5511 22.1983 17.6188 23.0267 17.7543C23.8551 17.8898 24.5659 18.0705 25.1591 18.2963V3.765C24.4636 3.38112 23.7291 3.09885 22.9555 2.91819C22.1818 2.73754 21.4027 2.64721 20.6182 2.64721C19.5136 2.64721 18.4449 2.83351 17.4119 3.20611C16.379 3.5787 15.4023 4.10373 14.4818 4.78118V19.2447ZM13.5614 22.2932C12.5182 21.4351 11.383 20.7746 10.1557 20.3117C8.92841 19.8488 7.67045 19.6173 6.38182 19.6173C5.63447 19.6173 4.90048 19.7189 4.17985 19.9221C3.45919 20.1254 2.74091 20.3738 2.025 20.6673C1.5525 20.9157 1.09688 20.8819 0.658125 20.5657C0.219375 20.2496 0 19.7979 0 19.2108V3.5279C0 3.18917 0.0715909 2.87867 0.214773 2.5964C0.357955 2.31413 0.572727 2.09396 0.859091 1.93589C1.71818 1.48426 2.61199 1.15118 3.54053 0.936656C4.46904 0.722131 5.41614 0.614868 6.38182 0.614868C7.67045 0.614868 8.9233 0.806812 10.1403 1.1907C11.3574 1.57459 12.4977 2.16171 13.5614 2.95206C14.6045 2.16171 15.7244 1.57459 16.921 1.1907C18.1176 0.806812 19.35 0.614868 20.6182 0.614868C21.5768 0.614868 22.5171 0.722131 23.4389 0.936656C24.3607 1.15118 25.2511 1.48426 26.1102 1.93589C26.3966 2.09396 26.6165 2.31413 26.7699 2.5964C26.9233 2.87867 27 3.18917 27 3.5279V19.2108C27 19.8407 26.7699 20.32 26.3097 20.6486C25.8494 20.9772 25.3943 20.9835 24.9443 20.6673C24.2489 20.3512 23.5408 20.0972 22.8202 19.9052C22.0995 19.7133 21.3655 19.6173 20.6182 19.6173C19.3295 19.6173 18.092 19.8544 16.9057 20.3286C15.7193 20.8028 14.6045 21.4577 13.5614 22.2932Z" fill="url(#paint0_linear_29_248)"/>
<defs>
<linearGradient id="paint0_linear_29_248" x1="13.5" y1="0.614868" x2="13.5" y2="22.2932" gradientUnits="userSpaceOnUse">
<stop offset="0.567708" stop-color="#1000FC"/>
<stop offset="1" stop-color="#070072"/>
</linearGradient>
</defs>
</svg>
