<svg width="27" height="25" viewBox="0 0 27 25" fill="none" xmlns="http://www.w3.org/2000/svg">
<path d="M13.2862 24.79L18.8145 10.0093H21.319L27 24.79H24.3428L23.0905 20.9101H17.2262L15.7907 24.79H13.2862ZM17.8982 18.7546H22.2353L20.0973 12.7807H20.0362L17.8982 18.7546ZM3.66516 21.0948L1.98529 19.4012L8.21606 13.1194C7.44231 12.2162 6.75509 11.3078 6.15441 10.3942C5.55373 9.4807 5.02941 8.53124 4.58145 7.54586H7.23869C7.58484 8.22331 7.96663 8.86483 8.38405 9.47043C8.80147 10.076 9.27489 10.697 9.8043 11.3334C10.7206 10.3686 11.4842 9.36779 12.095 8.33109C12.7059 7.29439 13.2251 6.21149 13.6527 5.08241H0V2.61897H8.55204V0.155518H10.9955V2.61897H19.5475V5.08241H16.0962C15.6482 6.4989 15.0526 7.88972 14.3094 9.25488C13.5662 10.62 12.655 11.9185 11.5758 13.1502L14.569 16.1987L13.6527 18.693L9.77376 14.9362L3.66516 21.0948Z" fill="url(#paint0_linear_29_250)"/>
<defs>
<linearGradient id="paint0_linear_29_250" x1="13.5" y1="0.155518" x2="13.5" y2="24.79" gradientUnits="userSpaceOnUse">
<stop offset="0.567708" stop-color="#1000FC"/>
<stop offset="1" stop-color="#070072"/>
</linearGradient>
</defs>
</svg>
